# xmcd
#
# Track frame offsets:
#	150
#	10941
#	19615
#	28935
#	40404
#	50286
#	62157
#	73605
#	82445
#	95426
#	107198
#	120762
#	131496
#	140981
#	153061
#	163582
#	176002
#	189299
#	202341
#	214555
#
# Disc length: 3007
#
# Revision: 1
# Processed by: cddbd v1.5.1PL0 Copyright (c) Steve Scherf et al.
# Submitted via: dBpowerAMP V4.0
# Normalized: r0:TDELIM( - )
#
DISCID=1c0bbd14
DTITLE=Various Artist - Classic Country - Hard to Find Hits
DYEAR=2004
DGENRE=Country
TTITLE0=Jimmie Rodgers - Kisses Sweeter Than Wine
TTITLE1=Don Gibson - Blue Blue Day
TTITLE2=Bob Luman - Let's Talk About Living
TTITLE3=Marvin Rainwater - Gonna Find Me a Bluebird
TTITLE4=Ned Miller - From a Jack to a King
TTITLE5=Wanda Jackson - Right or Wrong
TTITLE6=Wynn Stewart - It's Such a Pretty World Today
TTITLE7=Faron Young - Alone with You
TTITLE8=Bobby Helms - Fraulein
TTITLE9=Ernest Ashworth - Talk Back Trembling Lips
TTITLE10=The Davis Sisters - I Forgot More Than You'll Ever Know
TTITLE11=The Browns - The Old Lamplighter
TTITLE12=Burl Ives - A Little Bitty of Tear
TTITLE13=Bobby Edwards - You're the Reason
TTITLE14=Cowboy Copas - Alabam
TTITLE15=Hankshaw Hawkins - Lonesome 7-7203
TTITLE16=Carl and Pearl Butler - Don't Let Me Cross Over
TTITLE17=Jack Greene - Statue of a Fool
TTITLE18=Bobby Bare - 500 Miles Away from Home
TTITLE19=Freddie Hart - Easy Loving
EXTD=
EXTT0=
EXTT1=
EXTT2=
EXTT3=
EXTT4=
EXTT5=
EXTT6=
EXTT7=
EXTT8=
EXTT9=
EXTT10=
EXTT11=
EXTT12=
EXTT13=
EXTT14=
EXTT15=
EXTT16=
EXTT17=
EXTT18=
EXTT19=
PLAYORDER=
